<svg class="main-logo" xmlns="http://www.w3.org/2000/svg" width="122" height="122" viewBox="0 0 122 122">
  <path class="logo-block" data-name="Rectangle 1" fill="#b7bf10" d="M0 0h122v122H0z"/>
  <g data-name="Group 1" fill="#fff">
    <path data-name="Path 1" d="M47.074 78.838a.81.81 0 01-.193.531 1.3 1.3 0 01-.632.381 6.6 6.6 0 01-1.178.237 16.38 16.38 0 01-1.859.087 17.1 17.1 0 01-1.9-.087 5.885 5.885 0 01-1.178-.237 1.372 1.372 0 01-.618-.381.836.836 0 01-.193-.531V63.427H25.059v15.411a.85.85 0 01-.179.531 1.2 1.2 0 01-.618.381 6.6 6.6 0 01-1.178.237 20.338 20.338 0 01-3.756 0 6.216 6.216 0 01-1.193-.237 1.376 1.376 0 01-.632-.381.81.81 0 01-.193-.531V42.83a.81.81 0 01.193-.531 1.3 1.3 0 01.632-.381 6.3 6.3 0 011.193-.237 20.344 20.344 0 013.756 0 6.193 6.193 0 011.178.237 1.237 1.237 0 01.618.381.88.88 0 01.179.531v14H39.32v-14a.81.81 0 01.193-.531 1.294 1.294 0 01.618-.381 5.885 5.885 0 011.178-.237 17.1 17.1 0 011.9-.087 16.378 16.378 0 011.859.087 6.193 6.193 0 011.178.237 1.337 1.337 0 01.632.381.836.836 0 01.193.531z"/>
    <path data-name="Path 2" d="M72.711 76.66a12.775 12.775 0 01-.072 1.487 4.533 4.533 0 01-.222 1 1.328 1.328 0 01-.367.575.809.809 0 01-.517.179H54.057a2.427 2.427 0 01-1.637-.575 2.352 2.352 0 01-.666-1.873V42.83a.81.81 0 01.193-.531 1.3 1.3 0 01.632-.381 6.216 6.216 0 011.193-.237 20.344 20.344 0 013.756 0 5.836 5.836 0 011.178.237 1.337 1.337 0 01.632.381.836.836 0 01.193.531v30.678h11.993a.863.863 0 01.517.159 1.2 1.2 0 01.367.531 4.265 4.265 0 01.222.97 11.761 11.761 0 01.077 1.492"/>
    <path data-name="Path 3" d="M96.315 68.733a6.034 6.034 0 00-.439-2.371 4.519 4.519 0 00-1.3-1.753 5.935 5.935 0 00-2.182-1.091 12.732 12.732 0 00-3.447-.381h-4.6v10.844h5.6a9.4 9.4 0 002.728-.338 5.583 5.583 0 001.917-1 4.568 4.568 0 001.265-1.651 5.4 5.4 0 00.454-2.255m-1.975-16.329a5.646 5.646 0 00-.352-2.062 3.708 3.708 0 00-1.062-1.516 4.943 4.943 0 00-1.782-.927 10.251 10.251 0 00-2.873-.323h-3.92v9.9h4.335a7.508 7.508 0 002.68-.4 4.651 4.651 0 001.666-1.091 4.5 4.5 0 00.985-1.622 5.91 5.91 0 00.328-1.965m10.018 16.063a11.458 11.458 0 01-.56 3.684 9.837 9.837 0 01-1.545 2.916 9.96 9.96 0 01-2.356 2.188 13.757 13.757 0 01-3.018 1.5 18.219 18.219 0 01-3.52.869 28.08 28.08 0 01-4.171.28H79.05a2.427 2.427 0 01-1.637-.575 2.351 2.351 0 01-.661-1.873V44.216a2.356 2.356 0 01.661-1.868 2.41 2.41 0 011.637-.575h9.579a25.725 25.725 0 015.939.589 11.79 11.79 0 014.094 1.782 7.875 7.875 0 012.549 3.022 9.775 9.775 0 01.883 4.3 9.321 9.321 0 01-.352 2.607 7.827 7.827 0 01-1.033 2.226 7.7 7.7 0 01-1.666 1.767 8.391 8.391 0 01-2.255 1.236 10.052 10.052 0 012.994 1.035 8.538 8.538 0 012.39 1.9 8.954 8.954 0 011.608 2.728 9.947 9.947 0 01.584 3.5"/>
  </g>
</svg>
